# xmcd
#
# Track frame offsets:
#	150
#	17503
#	34151
#	52352
#	69399
#	86314
#	101219
#	122570
#	142046
#	158120
#	175326
#	194721
#
# Disc length: 2835 seconds
#
# Revision: 1
# Processed by: cddbd v1.4PL0 Copyright (c) Steve Scherf et al.
# Submitted via: audiograbber 1.80
#
DISCID=aa0b110c
DTITLE=Crowtown - Marshmallow Drive
DYEAR=1900
DGENRE=
TTITLE0=Stirring Up The Witches Brew
TTITLE1=Date
TTITLE2=Marshmallow Drive
TTITLE3=That Boy Might
TTITLE4=Open Doors
TTITLE5=Herbs Whipped Cream
TTITLE6=Alright
TTITLE7=Starting Now
TTITLE8=How Love Follows
TTITLE9=A Space Case In Orbit With Keys
TTITLE10=She Knows
TTITLE11=Adrianne
EXTD=
EXTT0=
EXTT1=
EXTT2=
EXTT3=
EXTT4=
EXTT5=
EXTT6=
EXTT7=
EXTT8=
EXTT9=
EXTT10=
EXTT11=
PLAYORDER=
